<?xml version="1.0" encoding="utf-8"?>
<!-- Generator: Adobe Illustrator 27.0.0, SVG Export Plug-In . SVG Version: 6.00 Build 0)  -->
<svg version="1.1" id="Layer_1" xmlns="http://www.w3.org/2000/svg" xmlns:xlink="http://www.w3.org/1999/xlink" x="0px" y="0px"
	 viewBox="0 0 1600 559.3" style="enable-background:new 0 0 1600 559.3;" xml:space="preserve">
<path id="Path_3566" style="opacity:0.997;enable-background:new    ;" d="M0-0.5h1600v560H0V-0.5z"/>
<g>
	<defs>
		<rect id="SVGID_1_" y="-0.5" width="1600" height="560"/>
	</defs>
	<clipPath id="SVGID_00000131358277072174086960000006915239373039335318_">
		<use xlink:href="#SVGID_1_"  style="overflow:visible;"/>
	</clipPath>
	<g id="Mask_Group_19" style="clip-path:url(#SVGID_00000131358277072174086960000006915239373039335318_);">
		<g id="Group_3366" transform="translate(0 -466.55)">
			<line id="Line_242" style="fill:none;stroke:#595B60;stroke-miterlimit:10;" x1="0" y1="-0.5" x2="1600" y2="-0.5"/>
			<path id="Path_3500" style="fill:none;stroke:#595B60;stroke-miterlimit:10;" d="M0,43.4c5.2,0,314.8,8.4,320,8.4
				s314.9-8.4,320-8.4s314.8,8.4,320,8.4s314.8-8.4,320-8.4s314.8,8.4,320,8.4"/>
			<path id="Path_3501" style="fill:none;stroke:#595B60;stroke-miterlimit:10;" d="M0,87.2c10.3,0,309.7,16.7,320,16.7
				s309.7-16.7,320-16.7S949.7,104,960,104s309.7-16.7,320-16.7s309.7,16.7,320,16.7"/>
			<path id="Path_3502" style="fill:none;stroke:#595B60;stroke-miterlimit:10;" d="M0,131.1c15.5,0,304.5,25.1,320,25.1
				s304.5-25.1,320-25.1s304.5,25.1,320,25.1s304.5-25.1,320-25.1s304.5,25.1,320,25.1"/>
			<path id="Path_3503" style="fill:none;stroke:#595B60;stroke-miterlimit:10;" d="M0,174.9c20.6,0,299.3,33.5,320,33.5
				s299.4-33.5,320-33.5s299.3,33.5,320,33.5s299.4-33.5,320-33.5s299.4,33.5,320,33.5"/>
			<path id="Path_3504" style="fill:none;stroke:#595B60;stroke-miterlimit:10;" d="M0,218.8c25.8,0,294.2,41.9,320,41.9
				s294.2-41.9,320-41.9s294.2,41.9,320,41.9s294.2-41.9,320-41.9s294.2,41.9,320,41.9"/>
			<path id="Path_3505" style="fill:none;stroke:#595B60;stroke-miterlimit:10;" d="M0,262.6c31,0,289,50.2,320,50.2
				s289.1-50.2,320-50.2s289,50.2,320,50.2s289-50.2,320-50.2s289,50.2,320,50.2"/>
			<path id="Path_3506" style="fill:none;stroke:#595B60;stroke-miterlimit:10;" d="M0,306.5c36.1,0,283.8,58.6,320,58.6
				s283.9-58.6,320-58.6s283.9,58.6,320,58.6s283.9-58.6,320-58.6s283.9,58.6,320,58.6"/>
			<path id="Path_3507" style="fill:none;stroke:#595B60;stroke-miterlimit:10;" d="M0,350.3c41.3,0,278.7,67,320,67
				s278.7-67,320-67s278.7,67,320,67s278.7-67,320-67s278.7,67,320,67"/>
			<path id="Path_3508" style="fill:none;stroke:#595B60;stroke-miterlimit:10;" d="M0,394.2c46.5,0,273.5,75.3,320,75.3
				s273.6-75.3,320-75.3s273.5,75.3,320,75.3s273.6-75.3,320-75.3s273.6,75.3,320,75.3"/>
			<path id="Path_3509" style="fill:none;stroke:#595B60;stroke-miterlimit:10;" d="M0,438c51.6,0,268.4,83.7,320,83.7
				S588.4,438,640,438s268.4,83.7,320,83.7s268.4-83.7,320-83.7s268.4,83.7,320,83.7"/>
			<path id="Path_3510" style="fill:none;stroke:#595B60;stroke-miterlimit:10;" d="M0,481.9c56.8,0,263.2,92.1,320,92.1
				s263.2-92.1,320-92.1S903.2,574,960,574s263.2-92.1,320-92.1s263.2,92.1,320,92.1"/>
			<path id="Path_3511" style="fill:none;stroke:#595B60;stroke-miterlimit:10;" d="M0,525.7c61.9,0,258,100.5,320,100.5
				s258.1-100.5,320-100.5s258,100.5,320,100.5s258.1-100.5,320-100.5s258.1,100.5,320,100.5"/>
			<path id="Path_3512" style="fill:none;stroke:#595B60;stroke-miterlimit:10;" d="M0,569.6c67.1,0,252.9,108.8,320,108.8
				s252.9-108.8,320-108.8s252.9,108.8,320,108.8c67.1,0,252.9-108.8,320-108.8s252.9,108.8,320,108.8"/>
			<path id="Path_3513" style="fill:none;stroke:#595B60;stroke-miterlimit:10;" d="M0,613.4c72.3,0,247.7,117.2,320,117.2
				s247.8-117.2,320-117.2s247.7,117.2,320,117.2s247.7-117.2,320-117.2s247.7,117.2,320,117.2"/>
			<path id="Path_3514" style="fill:none;stroke:#595B60;stroke-miterlimit:10;" d="M0,657.3c77.4,0,242.6,125.6,320,125.6
				s242.6-125.6,320-125.6s242.6,125.6,320,125.6s242.6-125.6,320-125.6s242.6,125.6,320,125.6"/>
			<path id="Path_3515" style="fill:none;stroke:#595B60;stroke-miterlimit:10;" d="M0,701.1c82.6,0,237.4,133.9,320,133.9
				s237.4-133.9,320-133.9s237.4,133.9,320,133.9c82.6,0,237.4-133.9,320-133.9s237.4,133.9,320,133.9"/>
			<path id="Path_3516" style="fill:none;stroke:#595B60;stroke-miterlimit:10;" d="M0,745c87.7,0,232.2,142.3,320,142.3
				S552.3,745,640,745s232.2,142.3,320,142.3S1192.3,745,1280,745s232.3,142.3,320,142.3"/>
			<path id="Path_3517" style="fill:none;stroke:#595B60;stroke-miterlimit:10;" d="M0,788.8c92.9,0,227.1,150.7,320,150.7
				s227.1-150.7,320-150.7s227.1,150.7,320,150.7s227.1-150.7,320-150.7s227.1,150.7,320,150.7"/>
			<path id="Path_3518" style="fill:none;stroke:#595B60;stroke-miterlimit:10;" d="M0,832.7c98.1,0,221.9,159,320,159
				s221.9-159,320-159s221.9,159.1,320,159.1s221.9-159,320-159s221.9,159,320,159"/>
			<path id="Path_3519" style="fill:none;stroke:#595B60;stroke-miterlimit:10;" d="M0,876.5c103.2,0,216.8,167.4,320,167.4
				s216.8-167.4,320-167.4S856.8,1044,960,1044s216.8-167.4,320-167.4s216.8,167.4,320,167.4"/>
			<path id="Path_3520" style="fill:none;stroke:#595B60;stroke-miterlimit:10;" d="M0,920.4c108.4,0,211.6,175.8,320,175.8
				s211.6-175.8,320-175.8s211.6,175.8,320,175.8s211.6-175.8,320-175.8s211.6,175.8,320,175.8"/>
			<path id="Path_3521" style="fill:none;stroke:#595B60;stroke-miterlimit:10;" d="M0,964.2c113.5,0,206.4,184.2,320,184.2
				s206.5-184.2,320-184.2s206.4,184.2,320,184.2s206.5-184.2,320-184.2s206.5,184.2,320,184.2"/>
			<path id="Path_3522" style="fill:none;stroke:#595B60;stroke-miterlimit:10;" d="M0,1008.1c118.7,0,201.3,192.5,320,192.5
				s201.3-192.5,320-192.5s201.3,192.5,320,192.5s201.3-192.5,320-192.5s201.3,192.5,320,192.5"/>
			<path id="Path_3523" style="fill:none;stroke:#595B60;stroke-miterlimit:10;" d="M0,1051.9c123.9,0,196.1,200.9,320,200.9
				s196.1-200.9,320-200.9s196.1,200.9,320,200.9s196.1-200.9,320-200.9s196.1,200.9,320,200.9"/>
			<path id="Path_3524" style="fill:none;stroke:#595B60;stroke-miterlimit:10;" d="M0,1095.8c129,0,191,209.3,320,209.3
				s191-209.3,320-209.3s191,209.3,320,209.3s191-209.3,320-209.3s191,209.3,320,209.3"/>
			<path id="Path_3525" style="fill:none;stroke:#595B60;stroke-miterlimit:10;" d="M0,1139.6c134.2,0,185.8,217.6,320,217.6
				s185.8-217.6,320-217.6s185.8,217.6,320,217.6s185.8-217.6,320-217.6s185.8,217.6,320,217.6"/>
			<path id="Path_3526" style="fill:none;stroke:#595B60;stroke-miterlimit:10;" d="M0,1183.5c139.4,0,180.6,226,320,226
				s180.6-226,320-226s180.6,226,320,226s180.6-226,320-226s180.6,226,320,226"/>
			<path id="Path_3527" style="fill:none;stroke:#595B60;stroke-miterlimit:10;" d="M0,1227.3c144.5,0,175.5,234.4,320,234.4
				s175.5-234.4,320-234.4s175.5,234.4,320,234.4s175.5-234.4,320-234.4s175.5,234.4,320,234.4"/>
			<path id="Path_3528" style="fill:none;stroke:#595B60;stroke-miterlimit:10;" d="M0,1271.2c149.7,0,170.3,242.8,320,242.8
				s170.3-242.8,320-242.8s170.3,242.8,320,242.8s170.3-242.8,320-242.8s170.3,242.8,320,242.8"/>
			<path id="Path_3529" style="fill:none;stroke:#595B60;stroke-miterlimit:10;" d="M0,1315c154.8,0,165.2,251.1,320,251.1
				S485.2,1315,640,1315s165.2,251.1,320,251.1s165.2-251.1,320-251.1s165.2,251.1,320,251.1"/>
			<path id="Path_3530" style="fill:none;stroke:#595B60;stroke-miterlimit:10;" d="M0,1358.9c160,0,160,259.5,320,259.5
				s160-259.5,320-259.5s160,259.5,320,259.5s160-259.5,320-259.5s160,259.5,320,259.5"/>
		</g>
	</g>
</g>
</svg>
